<svg xmlns="http://www.w3.org/2000/svg" width="1100.535" height="326.558"><g fill="#2699fb"><path d="M357.35 154.545c-4.378 0-8.16.783-11.35 2.346-3.187 1.565-5.88 3.657-8.066 6.284a32.92 32.92 0 00-5.25 8.816 62.037 62.037 0 00-3.095 10.034c-.752 3.442-1.253 6.754-1.501 9.942-.254 3.189-.376 6.036-.376 8.536 0 11.38 1.905 19.696 5.722 24.948 3.812 5.252 9.22 7.878 16.224 7.878 5.752 0 10.442-1.844 14.07-5.533 3.625-3.688 6.472-8.128 8.536-13.319a68.22 68.22 0 004.22-16.13c.749-5.564 1.124-10.286 1.124-14.163 0-9.128-1.564-16.35-4.688-21.667-3.128-5.313-8.32-7.972-15.57-7.972m3.939-29.074c9.127 0 16.944 1.284 23.448 3.845 6.5 2.564 11.817 6.316 15.944 11.256 4.127 4.941 7.128 10.944 9.004 18.005 1.875 7.068 2.813 15.102 2.813 24.106 0 5.002-.345 10.444-1.032 16.32-.69 5.878-1.94 11.788-3.752 17.726a84.833 84.833 0 01-7.408 17.163c-3.128 5.504-7.16 10.381-12.098 14.63-4.942 4.254-10.851 7.662-17.727 10.223-6.88 2.563-15.007 3.847-24.385 3.847-10.383 0-18.98-1.565-25.794-4.69-6.816-3.123-12.257-7.345-16.318-12.662-4.066-5.313-6.94-11.597-8.63-18.85-1.688-7.253-2.532-15.007-2.532-23.26 0-9.755 1.126-19.289 3.378-28.607 2.249-9.315 6.03-17.6 11.346-24.854 5.315-7.252 12.35-13.098 21.104-17.54 8.752-4.437 19.63-6.658 32.639-6.658M470.836 232.954c7.003 0 12.597-1.501 16.79-4.503 4.186-3.001 7.407-6.813 9.66-11.441 2.25-4.625 3.75-9.69 4.5-15.195.751-5.5 1.127-10.692 1.127-15.568 0-5.253-.346-9.849-1.033-13.788-.688-3.938-1.875-7.221-3.564-9.848-1.687-2.626-4.032-4.596-7.033-5.908-3.002-1.314-6.752-1.97-11.255-1.97-1.379 0-3.128.065-5.253.188-2.128.125-4.688.313-7.69.561-.253 4.63-.562 10.101-.938 16.415-.376 6.316-.783 12.942-1.22 19.882a2935.25 2935.25 0 01-1.406 21.01c-.501 7.066-1.002 13.6-1.501 19.602 1.876.252 3.564.408 5.065.47 1.5.064 2.748.093 3.75.093m-34.888-102.607c.122-1 .529-1.717 1.218-2.157.687-.436 1.343-.656 1.97-.656 8.504 0 16.474-.281 23.917-.844 7.439-.563 13.285-.845 17.537-.845 10.628 0 19.539 1.065 26.73 3.19 7.192 2.127 13.006 5.439 17.446 9.942 4.438 4.501 7.598 10.316 9.474 17.445 1.876 7.127 2.813 15.695 2.813 25.697 0 10.131-1.03 20.042-3.095 29.732-2.064 9.692-5.66 18.29-10.786 25.792-5.13 7.504-12.036 13.539-20.727 18.102-8.693 4.566-19.667 6.848-32.92 6.848-6.13 0-11.724-.127-16.79-.378-5.063-.25-9.411-1.001-13.037-2.249-3.628-1.25-6.442-3.125-8.441-5.628-2.001-2.5-3.001-5.939-3.001-10.316 0-1.625.094-4.063.28-7.317.189-3.25.44-7.127.752-11.63.31-4.501.686-9.473 1.126-14.913.436-5.439.904-11.16 1.406-17.163 1-12.38 1.782-22.257 2.345-29.637.563-7.379.937-13.16 1.125-17.352.188-4.188.31-7.345.376-9.473.062-2.124.155-4.188.282-6.19M572.689 260.716c-7.006 0-12.006-1.375-15.007-4.127-3.001-2.75-4.503-6.688-4.503-11.817 0-2.5.188-6.783.563-12.85.375-6.065.873-12.972 1.501-20.728a3102.24 3102.24 0 001.875-24.572c.625-8.629 1.25-16.757 1.876-24.385a1233.89 1233.89 0 001.501-20.072c.376-5.75.563-9.69.563-11.817 0-1.876.999-2.815 3.001-2.815h10.318c7.002 0 11.845 1.347 14.537 4.033 2.688 2.691 4.032 6.66 4.032 11.911 0 .628-.032 1.19-.093 1.69a13.456 13.456 0 00-.094 1.687l-6.19 87.6h33.764c.75 0 1.437.22 2.064.658.624.438.937 1.094.937 1.968l-.75 11.068c-.253 3.752-1.283 6.785-3.094 9.097-1.815 2.316-5.535 3.47-11.163 3.47zM721.253 260.716c-5.13 0-8.943-.75-11.443-2.251-2.503-1.5-4.313-3.377-5.44-5.628a2382.95 2382.95 0 01-18.29-38.453 8721.726 8721.726 0 00-17.351-37.14c.124 13.504.312 26.948.564 40.329.249 13.383.497 26.824.75 40.33 0 1.875-1.002 2.813-3.001 2.813h-10.317c-7.128 0-12.164-1.407-15.1-4.22-2.94-2.814-4.408-6.971-4.408-12.475 0-1.5.093-4.033.28-7.597.188-3.564.469-7.786.845-12.662.376-4.877.779-10.222 1.219-16.037.437-5.815.905-11.724 1.406-17.727.752-9.502 1.375-17.38 1.876-23.636.499-6.25.907-11.536 1.219-15.849.312-4.316.532-8.001.659-11.068.12-3.063.248-6.096.374-9.097 0-1.876.999-2.815 3.002-2.815h15.006c4.126 0 7.503.47 10.128 1.407 2.627.938 4.784 2.222 6.472 3.846a19.382 19.382 0 014.032 5.534c1 2.062 1.938 4.22 2.815 6.472 3.001 7.754 5.657 14.444 7.972 20.07 2.313 5.627 4.344 10.568 6.096 14.819 1.75 4.253 3.283 7.943 4.596 11.067 1.313 3.128 2.532 6.002 3.659 8.629a294.797 294.797 0 003.376 7.596 407.632 407.632 0 013.564 7.973c0-7.377-.032-14.974-.094-22.792l-.188-22.884c-.065-7.438-.126-14.598-.188-21.477-.064-6.877-.093-13.067-.093-18.57 0-1.126 1.061-1.69 3.19-1.69h10.315c4.128 0 7.41.408 9.848 1.22 2.439.815 4.344 2.001 5.722 3.564 1.374 1.565 2.28 3.47 2.72 5.721.437 2.251.656 4.816.656 7.691 0 3.127-.188 7.91-.563 14.35a5531.55 5531.55 0 01-1.312 21.665 2412.07 2412.07 0 01-1.69 24.854 5415.658 5415.658 0 01-1.78 23.73 2225.27 2225.27 0 01-1.502 18.476c-.439 5.065-.721 8.037-.844 8.91 0 1.003-.345 1.752-1.03 2.252-.69.5-1.473.75-2.346.75zM802.846 204.63h21.572l-7.877-49.523zm22.511-77.096c3.124 0 5.72.594 7.784 1.782a16.146 16.146 0 015.159 4.69c1.374 1.94 2.5 4.157 3.376 6.658a79.244 79.244 0 012.252 7.691c5 20.259 9.125 36.953 12.38 50.084 3.249 13.13 5.814 23.728 7.689 31.795 1.877 8.066 3.19 14.038 3.94 17.914.75 3.878 1.125 6.566 1.125 8.066 0 1.753-.408 2.94-1.218 3.564-.815.626-2.096.937-3.847.937h-9.567c-5.377 0-9.66-.656-12.848-1.97-3.189-1.311-5.628-3.217-7.317-5.72-1.687-2.5-2.905-5.534-3.657-9.098-.75-3.564-1.378-7.597-1.875-12.099h-32.639l-6.19 25.886c-.628 2.001-2.064 3.001-4.315 3.001h-9.941c-2.002 0-4.066-.217-6.191-.656-2.128-.437-4.032-1.155-5.721-2.157-1.688-1-3.095-2.28-4.22-3.846-1.126-1.562-1.69-3.469-1.69-5.721 0-2.748.875-7.25 2.627-13.507 1.75-6.25 3.97-13.345 6.659-21.288 2.689-7.94 5.69-16.256 9.004-24.949a1395.23 1395.23 0 019.661-24.667c3.124-7.753 5.97-14.566 8.535-20.446 2.562-5.876 4.53-10.003 5.908-12.38 1-1.75 1.905-2.782 2.72-3.095.813-.31 2.345-.47 4.597-.47zM984.423 199.565c-.374 3.75-.937 7.91-1.688 12.473-.75 4.567-1.908 9.192-3.47 13.883a68.558 68.558 0 01-6.284 13.598c-2.626 4.379-6.003 8.287-10.13 11.724-4.125 3.442-9.097 6.19-14.912 8.254-5.816 2.062-12.726 3.096-20.728 3.096-8.13 0-15.07-1.16-20.82-3.472-5.754-2.312-10.444-5.502-14.07-9.567-3.628-4.063-6.255-8.784-7.878-14.161-1.626-5.376-2.437-11.13-2.437-17.258 0-2.749.121-6.472.375-11.161.248-4.69.59-9.783 1.03-15.288.436-5.501.907-11.223 1.407-17.163.499-5.938.967-11.597 1.408-16.977.436-5.375.843-10.223 1.219-14.537.374-4.314.624-7.596.75-9.848.123-2.374.436-3.907.938-4.596.498-.686 1.249-1.031 2.252-1.031H901.7c7.626 0 12.754 1.627 15.38 4.877 2.628 3.252 3.94 8.067 3.94 14.444 0 .375-.094 2.034-.282 4.97-.186 2.94-.438 6.537-.75 10.786-.314 4.254-.627 8.88-.936 13.88a2342.42 2342.42 0 01-.94 14.258 865.23 865.23 0 00-.75 11.817c-.188 3.376-.281 5.628-.281 6.752 0 2.128.093 4.567.281 7.317.188 2.751.687 5.378 1.502 7.878.81 2.502 2.125 4.596 3.938 6.284 1.812 1.688 4.408 2.532 7.784 2.532 4.25 0 7.722-1.436 10.412-4.314 2.687-2.876 4.75-6.313 6.19-10.317 1.436-4 2.438-8.065 3-12.193.564-4.127.969-7.503 1.22-10.13a3893.57 3893.57 0 011.596-19.696c.56-6.753 1.06-13.065 1.5-18.945.437-5.876.78-11.003 1.032-15.381.248-4.376.374-7.378.374-9.004 0-2.5.188-4.095.563-4.784.375-.686 1.188-1.031 2.439-1.031h10.316c4.25 0 7.598.375 10.036 1.125 2.438.751 4.282 1.752 5.533 3.002 1.25 1.252 2.032 2.69 2.345 4.314.31 1.626.47 3.315.47 5.064 0 1.627-.095 4.69-.282 9.192-.188 4.502-.408 9.631-.657 15.382a1017.55 1017.55 0 01-.937 17.82c-.376 6.128-.815 11.506-1.314 16.132M1065.27 153.795l-7.129 104.107c-.125 1.876-.814 2.813-2.064 2.813h-10.316c-7.005 0-12.005-1.374-15.006-4.125-3.002-2.75-4.503-6.69-4.503-11.819 0-1.876.095-4.69.281-8.441.188-3.75.471-8.16.846-13.224.374-5.064.778-10.565 1.218-16.507.436-5.938.907-11.941 1.408-18.008.498-6.064.966-12.1 1.406-18.101.437-6.003.844-11.565 1.22-16.695h-30.012c-1.378 0-2.064-.873-2.064-2.626l.562-10.504c.124-1.623.404-3.22.844-4.784a11.744 11.744 0 012.158-4.22c1-1.25 2.28-2.251 3.845-3.002 1.561-.75 3.47-1.125 5.721-1.125h83.848c.751 0 1.436.188 2.063.563.625.374.939 1.064.939 2.062l-.75 11.068c-.253 3.752-1.284 6.786-3.097 9.098-1.813 2.316-5.532 3.47-11.16 3.47z"/><g><path d="M172.684 109.816c-1.179 7.525-2.1 12.677-2.732 15.469l-9.685 45.781-3.226.648c-2.144.647-3.972.963-5.469.963-1.943 0-3.77.332-5.483.964-2.374 0-4.518.116-6.448.332a93.894 93.894 0 00-6.446.963c-3.439.648-6.563.965-9.354.965-1.497 0-2.69-.101-3.541-.317 1.28-3.654 2.577-7.41 3.87-11.284a253.48 253.48 0 003.542-11.612c.864-2.994 2.206-6.016 2.42-8.823 1.73-5.295 2.706-9.971 4.027-14.71.432-1.28.964-2.789 1.612-4.518.648-1.713.964-3.54.964-5.468.106-1.158 0-1.624.052-2.985-.51-3.581-1.03-4.876-2.787-6.527-2.043-1.613-3.713-2.635-4.993-3.067-3.022-1.08-6.448-1.713-10.319-1.928-3.872-.217-7.31-.332-10.317-.332-1.512 0-3.383.058-5.644.159-2.259.115-4.347.49-6.288 1.137-1.93.65-3.598 1.612-4.995 2.892-1.396 1.298-2.506 2.893-2.506 5.254 0 1.727-.1 3.553-.316 5.481-.215 1.93-.129 4.003-.56 5.715-.431 2.145-.862 4.245-1.294 6.289a62.014 62.014 0 00-.965 5.96c-.647 4.735-1.296 9.41-1.93 14.015-.648 4.637-3.221 16.192-7.741 34.67-4.519 18.48-7.787 30.943-9.83 37.39a372.92 372.92 0 00-5.642 19.673 79.547 79.547 0 01-1.452 4.505 54.39 54.39 0 00-1.453 4.836 256.443 256.443 0 00-1.283 5.324 24.46 24.46 0 00-.647 5.643c0 1.928.531 4.303 1.611 7.095 1.065 2.792 2.619 5.468 4.677 8.06 2.03 2.577 4.663 4.718 7.887 6.448 3.224 1.712 6.88 2.576 10.968 2.576 4.085 0 6.821-1.396 8.217-4.19 1.395-2.792 2.416-5.813 3.066-9.036.432-2.145.688-3.917.805-5.312.1-1.396.319-2.633.648-3.713.316-1.065.69-2.259 1.123-3.54.432-1.297 1.08-3.008 1.941-5.167 3.427-8.592 5.959-17.084 7.572-25.46 1.61-8.39 4.188-14.13 7.743-17.253 3.54-3.108 9.124-4.837 16.765-5.155 7.612-.33 15.415-1.338 23.37-3.065a2114.313 2114.313 0 00-6.778 29.821c-2.143 9.786-5.05 24.338-8.705 43.69-.848 3.658-1.554 7.24-2.086 10.796-.548 3.54-1.532 7.023-2.117 10.63-.982 6.051-.228 7.853.952 11.61 1.18 3.753 2.908 7.093 5.153 9.985a25.835 25.835 0 004.318 4.376c-1.584.058-3.183.088-4.779.088C60.691 326.557 0 264.064 0 186.58c0-77.5 62.819-140.32 140.304-140.32 17.645 0 34.02 1.942 49.564 7.887-1.485 2.993-2.342 5.198-3.632 8.43-1.929 3.873-2.991 7.902-4.171 12.091-1.195 4.188-3.035 8.23-3.884 11.452-1.941 8.176-4.316 16.18-5.497 23.696M280.621 186.58c0 66.877-46.785 122.819-109.433 136.879-.186-10.23.187-18.9 1.655-28.107.432-2.69.965-5.541 1.612-8.55a83.317 83.317 0 011.77-8.863c.762-2.908 2.1-10.48 4.031-22.726A800.92 800.92 0 01188 223.78c4.828-18.423 9.898-37.54 13.21-51.419.432-.646.764-1.612.98-2.908.416-1.064.748-2.086.963-3.066.217-.962.433-1.554.647-1.77 4.506-19.773 7.413-31.69 8.692-35.776a262.174 262.174 0 003.554-12.248 125.89 125.89 0 002.738-11.284 80.648 80.648 0 013.065-11.297c1.496-4.935 3.872-9.872 7.093-14.823l.534-.95c31.23 25.732 51.146 64.705 51.146 108.34" fill-rule="evenodd"/></g><g><path d="M198.893 81.297c-3.829-9.145-.858-20.55 6.659-24.584-4.772 5.41-4.82 11.162-2.952 17.525.96-1.547 1.747-2.815 2.762-4.445-.746 4.29-1.418 8.16-2.088 12.031l.25.118c1.885-3.324 3.77-6.648 5.932-10.464l-.61 4.783c3.87-1.865 7.733-8.239 8.579-14.118 2.543 6.63-2.688 16.229-10.529 22.33.326-2.175.616-4.127.91-6.08-.08-.049-.163-.097-.24-.145-1.292 2.238-2.598 4.467-3.866 6.713-1.248 2.206-2.464 4.432-4.046 6.561.894-5.095 1.792-10.192 2.688-15.287-.09-.046-.17-.094-.255-.14l-3.194 5.202" fill-rule="evenodd"/><path d="M192.968 57.8l5.519-13.628 7.842-5.315C210.947 19.427 228.647 3.195 236.19 0c3.195 7.543 4.611 31.518-5.592 48.685l1.933 9.275-5.519 13.627-7.459-10.924c-4.77 2.02-4.77 2.02-8.188.636-3.419-1.385-3.419-1.385-5.439-6.154L192.968 57.8m27.851-30.226a5.51 5.51 0 104.298 10.148 5.51 5.51 0 00-4.298-10.148z"/></g></g></svg>